<svg width="33" height="32" viewBox="0 0 33 32" fill="none" xmlns="http://www.w3.org/2000/svg">
<path d="M22.4629 -0.000244141H10.5684C5.09489 -0.000244141 0.65625 4.4384 0.65625 9.91187V21.8064C0.65625 27.2799 5.09489 31.7185 10.5684 31.7185H22.4629C27.9364 31.7185 32.375 27.2799 32.375 21.8064V9.91187C32.375 4.4384 27.9364 -0.000244141 22.4629 -0.000244141ZM29.4014 21.8064C29.4014 25.6325 26.289 28.7449 22.4629 28.7449H10.5684C6.74229 28.7449 3.62988 25.6325 3.62988 21.8064V9.91187C3.62988 6.08579 6.74229 2.97339 10.5684 2.97339H22.4629C26.289 2.97339 29.4014 6.08579 29.4014 9.91187V21.8064Z" fill="white"/>
<path d="M16.5156 7.92944C12.1365 7.92944 8.58594 11.48 8.58594 15.8591C8.58594 20.2383 12.1365 23.7888 16.5156 23.7888C20.8948 23.7888 24.4453 20.2383 24.4453 15.8591C24.4453 11.48 20.8948 7.92944 16.5156 7.92944ZM16.5156 20.8152C13.7838 20.8152 11.5596 18.5909 11.5596 15.8591C11.5596 13.1254 13.7838 10.9031 16.5156 10.9031C19.2474 10.9031 21.4717 13.1254 21.4717 15.8591C21.4717 18.5909 19.2474 20.8152 16.5156 20.8152Z" fill="white"/>
<path d="M25.0405 8.39134C25.6241 8.39134 26.0972 7.91827 26.0972 7.33471C26.0972 6.75115 25.6241 6.27808 25.0405 6.27808C24.457 6.27808 23.9839 6.75115 23.9839 7.33471C23.9839 7.91827 24.457 8.39134 25.0405 8.39134Z" fill="white"/>
</svg>
