<svg width="239" height="45" viewBox="0 0 239 45" fill="none" xmlns="http://www.w3.org/2000/svg">
<path d="M82.4485 42.9067C82.4485 41.7548 81.4214 40.8135 80.1647 40.8135C78.908 40.8135 77.8809 41.7548 77.8809 42.9067C77.8809 44.0585 78.908 44.9999 80.1647 44.9999C81.4335 44.9999 82.4485 44.0696 82.4485 42.9067Z" fill="#FFCE53"/>
<path d="M108.399 42.9067C108.399 41.7548 107.372 40.8135 106.115 40.8135C104.859 40.8135 103.832 41.7548 103.832 42.9067C103.832 44.0585 104.859 44.9999 106.115 44.9999C107.384 44.9999 108.399 44.0696 108.399 42.9067Z" fill="#FFCE53"/>
<path d="M134.368 42.9067C134.368 41.7548 133.341 40.8135 132.084 40.8135C130.828 40.8135 129.801 41.7548 129.801 42.9067C129.801 44.0585 130.828 44.9999 132.084 44.9999C133.341 44.9999 134.368 44.0696 134.368 42.9067Z" fill="#FFCE53"/>
<path d="M160.324 42.9067C160.324 41.7548 159.297 40.8135 158.04 40.8135C156.784 40.8135 155.757 41.7548 155.757 42.9067C155.757 44.0585 156.784 44.9999 158.04 44.9999C159.297 44.9999 160.324 44.0696 160.324 42.9067Z" fill="#FFCE53"/>
<path d="M186.277 42.9067C186.277 41.7548 185.25 40.8135 183.994 40.8135C182.737 40.8135 181.71 41.7548 181.71 42.9067C181.71 44.0585 182.737 44.9999 183.994 44.9999C185.262 44.9999 186.277 44.0696 186.277 42.9067Z" fill="#FFCE53"/>
<path d="M82.4484 22.5052C82.4484 21.3533 81.4213 20.4119 80.1646 20.4119C78.9079 20.4119 77.8808 21.3533 77.8808 22.5052C77.8808 23.657 78.9079 24.5984 80.1646 24.5984C81.4333 24.5984 82.4484 23.657 82.4484 22.5052Z" fill="#FFCE53"/>
<path d="M108.399 22.5052C108.399 21.3533 107.372 20.4119 106.115 20.4119C104.859 20.4119 103.831 21.3533 103.831 22.5052C103.831 23.657 104.859 24.5984 106.115 24.5984C107.384 24.5984 108.399 23.657 108.399 22.5052Z" fill="#FFCE53"/>
<path d="M134.368 22.5052C134.368 21.3533 133.341 20.4119 132.085 20.4119C130.828 20.4119 129.801 21.3533 129.801 22.5052C129.801 23.657 130.828 24.5984 132.085 24.5984C133.341 24.5984 134.368 23.657 134.368 22.5052Z" fill="#FFCE53"/>
<path d="M160.324 22.5052C160.324 21.3533 159.297 20.4119 158.04 20.4119C156.784 20.4119 155.757 21.3533 155.757 22.5052C155.757 23.657 156.784 24.5984 158.04 24.5984C159.297 24.5984 160.324 23.657 160.324 22.5052Z" fill="#FFCE53"/>
<path d="M186.277 22.5052C186.277 21.3533 185.25 20.4119 183.994 20.4119C182.737 20.4119 181.71 21.3533 181.71 22.5052C181.71 23.657 182.737 24.5984 183.994 24.5984C185.262 24.5984 186.277 23.657 186.277 22.5052Z" fill="#FFCE53"/>
<path d="M82.4484 2.0933C82.4484 0.94145 81.4213 1.6986e-05 80.1646 1.6986e-05C78.9079 1.6986e-05 77.8808 0.94145 77.8808 2.0933C77.8808 3.24515 78.9079 4.18658 80.1646 4.18658C81.4333 4.18658 82.4484 3.24515 82.4484 2.0933Z" fill="#FFCE53"/>
<path d="M108.399 2.0933C108.399 0.94145 107.372 1.6986e-05 106.115 1.6986e-05C104.859 1.6986e-05 103.831 0.94145 103.831 2.0933C103.831 3.24515 104.859 4.18658 106.115 4.18658C107.384 4.18658 108.399 3.24515 108.399 2.0933Z" fill="#FFCE53"/>
<path d="M134.368 2.0933C134.368 0.94145 133.341 1.6986e-05 132.085 1.6986e-05C130.828 1.6986e-05 129.801 0.94145 129.801 2.0933C129.801 3.24515 130.828 4.18658 132.085 4.18658C133.341 4.18658 134.368 3.24515 134.368 2.0933Z" fill="#FFCE53"/>
<path d="M160.324 2.0933C160.324 0.94145 159.297 1.6986e-05 158.04 1.6986e-05C156.784 1.6986e-05 155.757 0.94145 155.757 2.0933C155.757 3.24515 156.784 4.18658 158.04 4.18658C159.297 4.18658 160.324 3.24515 160.324 2.0933Z" fill="#FFCE53"/>
<path d="M4.5675 42.9067C4.5675 41.7548 3.54043 40.8135 2.28377 40.8135C1.02711 40.8135 1.70598e-05 41.7548 1.70598e-05 42.9067C1.70598e-05 44.0585 1.02711 44.9999 2.28377 44.9999C3.55251 44.9999 4.5675 44.0696 4.5675 42.9067Z" fill="#FFCE53"/>
<path d="M30.5345 42.9067C30.5345 41.7548 29.5074 40.8135 28.2507 40.8135C26.994 40.8135 25.9669 41.7548 25.9669 42.9067C25.9669 44.0585 26.994 44.9999 28.2507 44.9999C29.5074 44.9999 30.5345 44.0696 30.5345 42.9067Z" fill="#FFCE53"/>
<path d="M56.4899 42.9067C56.4899 41.7548 55.4628 40.8135 54.2061 40.8135C52.9494 40.8135 51.9223 41.7548 51.9223 42.9067C51.9223 44.0585 52.9494 44.9999 54.2061 44.9999C55.4628 44.9999 56.4899 44.0696 56.4899 42.9067Z" fill="#FFCE53"/>
<path d="M1.71661e-05 22.5052C1.71661e-05 21.3491 1.0225 20.4119 2.28377 20.4119C3.54504 20.4119 4.5675 21.3491 4.5675 22.5052C4.5675 23.6612 3.54504 24.5984 2.28377 24.5984C1.0225 24.5984 1.71661e-05 23.6612 1.71661e-05 22.5052Z" fill="#FFCE53"/>
<path d="M30.5345 22.5052C30.5345 21.3533 29.5074 20.4119 28.2507 20.4119C26.994 20.4119 25.9669 21.3533 25.9669 22.5052C25.9669 23.657 26.994 24.5984 28.2507 24.5984C29.5074 24.5984 30.5345 23.657 30.5345 22.5052Z" fill="#FFCE53"/>
<path d="M56.4899 22.5052C56.4899 21.3533 55.4628 20.4119 54.2061 20.4119C52.9494 20.4119 51.9223 21.3533 51.9223 22.5052C51.9223 23.657 52.9494 24.5984 54.2061 24.5984C55.4628 24.5984 56.4899 23.657 56.4899 22.5052Z" fill="#FFCE53"/>
<path d="M4.5675 2.0933C4.5675 0.94145 3.54043 1.6986e-05 2.28377 1.6986e-05C1.02711 1.6986e-05 1.70598e-05 0.94145 1.70598e-05 2.0933C1.70598e-05 3.24515 1.02711 4.18658 2.28377 4.18658C3.55251 4.18658 4.5675 3.24515 4.5675 2.0933Z" fill="#FFCE53"/>
<path d="M30.5345 2.0933C30.5345 0.94145 29.5074 1.6986e-05 28.2507 1.6986e-05C26.994 1.6986e-05 25.9669 0.94145 25.9669 2.0933C25.9669 3.24515 26.994 4.18658 28.2507 4.18658C29.5074 4.18658 30.5345 3.24515 30.5345 2.0933Z" fill="#FFCE53"/>
<path d="M56.4899 2.0933C56.4899 0.94145 55.4628 1.6986e-05 54.2061 1.6986e-05C52.9494 1.6986e-05 51.9223 0.94145 51.9223 2.0933C51.9223 3.24515 52.9494 4.18658 54.2061 4.18658C55.4628 4.18658 56.4899 3.24515 56.4899 2.0933Z" fill="#FFCE53"/>
<path d="M186.277 2.0933C186.277 0.94145 185.25 1.6986e-05 183.994 1.6986e-05C182.737 1.6986e-05 181.71 0.94145 181.71 2.0933C181.71 3.24515 182.737 4.18658 183.994 4.18658C185.262 4.18658 186.277 3.24515 186.277 2.0933Z" fill="#FFCE53"/>
<path d="M212.244 42.9067C212.244 41.7548 211.217 40.8135 209.96 40.8135C208.703 40.8135 207.676 41.7548 207.676 42.9067C207.676 44.0585 208.703 44.9999 209.96 44.9999C211.217 44.9999 212.244 44.0696 212.244 42.9067Z" fill="#FFCE53"/>
<path d="M238.202 42.9067C238.202 41.7548 237.175 40.8135 235.918 40.8135C234.661 40.8135 233.634 41.7548 233.634 42.9067C233.634 44.0585 234.661 44.9999 235.918 44.9999C237.175 44.9999 238.202 44.0696 238.202 42.9067Z" fill="#FFCE53"/>
<path d="M212.244 22.5052C212.244 21.3533 211.217 20.4119 209.96 20.4119C208.703 20.4119 207.676 21.3533 207.676 22.5052C207.676 23.657 208.703 24.5984 209.96 24.5984C211.217 24.5984 212.244 23.657 212.244 22.5052Z" fill="#FFCE53"/>
<path d="M238.202 22.5052C238.202 21.3533 237.175 20.4119 235.918 20.4119C234.661 20.4119 233.634 21.3533 233.634 22.5052C233.634 23.657 234.661 24.5984 235.918 24.5984C237.175 24.5984 238.202 23.657 238.202 22.5052Z" fill="#FFCE53"/>
<path d="M212.244 2.0933C212.244 0.94145 211.217 1.6986e-05 209.96 1.6986e-05C208.703 1.6986e-05 207.676 0.94145 207.676 2.0933C207.676 3.24515 208.703 4.18658 209.96 4.18658C211.217 4.18658 212.244 3.24515 212.244 2.0933Z" fill="#FFCE53"/>
<path d="M238.202 2.0933C238.202 0.94145 237.175 1.6986e-05 235.918 1.6986e-05C234.661 1.6986e-05 233.634 0.94145 233.634 2.0933C233.634 3.24515 234.661 4.18658 235.918 4.18658C237.175 4.18658 238.202 3.24515 238.202 2.0933Z" fill="#FFCE53"/>
</svg>
