<svg width="239" height="45" viewBox="0 0 239 45" fill="none" xmlns="http://www.w3.org/2000/svg">
<path d="M82.4485 42.9065C82.4485 41.7546 81.4214 40.8133 80.1647 40.8133C78.908 40.8133 77.8809 41.7546 77.8809 42.9065C77.8809 44.0583 78.908 44.9998 80.1647 44.9998C81.4335 44.9998 82.4485 44.0694 82.4485 42.9065Z" fill="#2E2B67"/>
<path d="M108.399 42.9065C108.399 41.7546 107.372 40.8133 106.115 40.8133C104.859 40.8133 103.832 41.7546 103.832 42.9065C103.832 44.0583 104.859 44.9998 106.115 44.9998C107.384 44.9998 108.399 44.0694 108.399 42.9065Z" fill="#2E2B67"/>
<path d="M134.368 42.9065C134.368 41.7546 133.341 40.8133 132.084 40.8133C130.828 40.8133 129.801 41.7546 129.801 42.9065C129.801 44.0583 130.828 44.9998 132.084 44.9998C133.341 44.9998 134.368 44.0694 134.368 42.9065Z" fill="#2E2B67"/>
<path d="M160.324 42.9065C160.324 41.7546 159.297 40.8133 158.04 40.8133C156.784 40.8133 155.757 41.7546 155.757 42.9065C155.757 44.0583 156.784 44.9998 158.04 44.9998C159.297 44.9998 160.324 44.0694 160.324 42.9065Z" fill="#2E2B67"/>
<path d="M186.277 42.9065C186.277 41.7546 185.25 40.8133 183.994 40.8133C182.737 40.8133 181.71 41.7546 181.71 42.9065C181.71 44.0583 182.737 44.9998 183.994 44.9998C185.262 44.9998 186.277 44.0694 186.277 42.9065Z" fill="#2E2B67"/>
<path d="M82.4484 22.505C82.4484 21.3531 81.4213 20.4117 80.1646 20.4117C78.9079 20.4117 77.8808 21.3531 77.8808 22.505C77.8808 23.6568 78.9079 24.5983 80.1646 24.5983C81.4333 24.5983 82.4484 23.6568 82.4484 22.505Z" fill="#2E2B67"/>
<path d="M108.399 22.505C108.399 21.3531 107.372 20.4117 106.115 20.4117C104.859 20.4117 103.831 21.3531 103.831 22.505C103.831 23.6568 104.859 24.5983 106.115 24.5983C107.384 24.5983 108.399 23.6568 108.399 22.505Z" fill="#2E2B67"/>
<path d="M134.368 22.505C134.368 21.3531 133.341 20.4117 132.085 20.4117C130.828 20.4117 129.801 21.3531 129.801 22.505C129.801 23.6568 130.828 24.5983 132.085 24.5983C133.341 24.5983 134.368 23.6568 134.368 22.505Z" fill="#2E2B67"/>
<path d="M160.324 22.505C160.324 21.3531 159.297 20.4117 158.04 20.4117C156.784 20.4117 155.757 21.3531 155.757 22.505C155.757 23.6568 156.784 24.5983 158.04 24.5983C159.297 24.5983 160.324 23.6568 160.324 22.505Z" fill="#2E2B67"/>
<path d="M186.277 22.505C186.277 21.3531 185.25 20.4117 183.994 20.4117C182.737 20.4117 181.71 21.3531 181.71 22.505C181.71 23.6568 182.737 24.5983 183.994 24.5983C185.262 24.5983 186.277 23.6568 186.277 22.505Z" fill="#2E2B67"/>
<path d="M82.4484 2.09312C82.4484 0.941267 81.4213 -0.000166119 80.1646 -0.000166119C78.9079 -0.000166119 77.8808 0.941267 77.8808 2.09312C77.8808 3.24497 78.9079 4.1864 80.1646 4.1864C81.4333 4.1864 82.4484 3.24497 82.4484 2.09312Z" fill="#2E2B67"/>
<path d="M108.399 2.09312C108.399 0.941267 107.372 -0.000166119 106.115 -0.000166119C104.859 -0.000166119 103.831 0.941267 103.831 2.09312C103.831 3.24497 104.859 4.1864 106.115 4.1864C107.384 4.1864 108.399 3.24497 108.399 2.09312Z" fill="#2E2B67"/>
<path d="M134.368 2.09312C134.368 0.941267 133.341 -0.000166119 132.085 -0.000166119C130.828 -0.000166119 129.801 0.941267 129.801 2.09312C129.801 3.24497 130.828 4.1864 132.085 4.1864C133.341 4.1864 134.368 3.24497 134.368 2.09312Z" fill="#2E2B67"/>
<path d="M160.324 2.09312C160.324 0.941267 159.297 -0.000166119 158.04 -0.000166119C156.784 -0.000166119 155.757 0.941267 155.757 2.09312C155.757 3.24497 156.784 4.1864 158.04 4.1864C159.297 4.1864 160.324 3.24497 160.324 2.09312Z" fill="#2E2B67"/>
<path d="M4.5675 42.9065C4.5675 41.7546 3.54043 40.8133 2.28377 40.8133C1.02711 40.8133 1.70598e-05 41.7546 1.70598e-05 42.9065C1.70598e-05 44.0583 1.02711 44.9998 2.28377 44.9998C3.55251 44.9998 4.5675 44.0694 4.5675 42.9065Z" fill="#2E2B67"/>
<path d="M30.5345 42.9065C30.5345 41.7546 29.5074 40.8133 28.2507 40.8133C26.994 40.8133 25.9669 41.7546 25.9669 42.9065C25.9669 44.0583 26.994 44.9998 28.2507 44.9998C29.5074 44.9998 30.5345 44.0694 30.5345 42.9065Z" fill="#2E2B67"/>
<path d="M56.4899 42.9065C56.4899 41.7546 55.4628 40.8133 54.2061 40.8133C52.9494 40.8133 51.9223 41.7546 51.9223 42.9065C51.9223 44.0583 52.9494 44.9998 54.2061 44.9998C55.4628 44.9998 56.4899 44.0694 56.4899 42.9065Z" fill="#2E2B67"/>
<path d="M1.71661e-05 22.505C1.71661e-05 21.3489 1.0225 20.4117 2.28377 20.4117C3.54504 20.4117 4.5675 21.3489 4.5675 22.505C4.5675 23.6611 3.54504 24.5983 2.28377 24.5983C1.0225 24.5983 1.71661e-05 23.6611 1.71661e-05 22.505Z" fill="#2E2B67"/>
<path d="M30.5345 22.505C30.5345 21.3531 29.5074 20.4117 28.2507 20.4117C26.994 20.4117 25.9669 21.3531 25.9669 22.505C25.9669 23.6568 26.994 24.5983 28.2507 24.5983C29.5074 24.5983 30.5345 23.6568 30.5345 22.505Z" fill="#2E2B67"/>
<path d="M56.4899 22.505C56.4899 21.3531 55.4628 20.4117 54.2061 20.4117C52.9494 20.4117 51.9223 21.3531 51.9223 22.505C51.9223 23.6568 52.9494 24.5983 54.2061 24.5983C55.4628 24.5983 56.4899 23.6568 56.4899 22.505Z" fill="#2E2B67"/>
<path d="M4.5675 2.09312C4.5675 0.941267 3.54043 -0.000166119 2.28377 -0.000166119C1.02711 -0.000166119 1.70598e-05 0.941267 1.70598e-05 2.09312C1.70598e-05 3.24497 1.02711 4.1864 2.28377 4.1864C3.55251 4.1864 4.5675 3.24497 4.5675 2.09312Z" fill="#2E2B67"/>
<path d="M30.5345 2.09312C30.5345 0.941267 29.5074 -0.000166119 28.2507 -0.000166119C26.994 -0.000166119 25.9669 0.941267 25.9669 2.09312C25.9669 3.24497 26.994 4.1864 28.2507 4.1864C29.5074 4.1864 30.5345 3.24497 30.5345 2.09312Z" fill="#2E2B67"/>
<path d="M56.4899 2.09312C56.4899 0.941267 55.4628 -0.000166119 54.2061 -0.000166119C52.9494 -0.000166119 51.9223 0.941267 51.9223 2.09312C51.9223 3.24497 52.9494 4.1864 54.2061 4.1864C55.4628 4.1864 56.4899 3.24497 56.4899 2.09312Z" fill="#2E2B67"/>
<path d="M186.277 2.09312C186.277 0.941267 185.25 -0.000166119 183.994 -0.000166119C182.737 -0.000166119 181.71 0.941267 181.71 2.09312C181.71 3.24497 182.737 4.1864 183.994 4.1864C185.262 4.1864 186.277 3.24497 186.277 2.09312Z" fill="#2E2B67"/>
<path d="M212.244 42.9065C212.244 41.7546 211.217 40.8133 209.96 40.8133C208.703 40.8133 207.676 41.7546 207.676 42.9065C207.676 44.0583 208.703 44.9998 209.96 44.9998C211.217 44.9998 212.244 44.0694 212.244 42.9065Z" fill="#2E2B67"/>
<path d="M238.202 42.9065C238.202 41.7546 237.175 40.8133 235.918 40.8133C234.661 40.8133 233.634 41.7546 233.634 42.9065C233.634 44.0583 234.661 44.9998 235.918 44.9998C237.175 44.9998 238.202 44.0694 238.202 42.9065Z" fill="#2E2B67"/>
<path d="M212.244 22.505C212.244 21.3531 211.217 20.4117 209.96 20.4117C208.703 20.4117 207.676 21.3531 207.676 22.505C207.676 23.6568 208.703 24.5983 209.96 24.5983C211.217 24.5983 212.244 23.6568 212.244 22.505Z" fill="#2E2B67"/>
<path d="M238.202 22.505C238.202 21.3532 237.175 20.4117 235.918 20.4117C234.661 20.4117 233.634 21.3532 233.634 22.505C233.634 23.6568 234.661 24.5983 235.918 24.5983C237.175 24.5983 238.202 23.6568 238.202 22.505Z" fill="#2E2B67"/>
<path d="M212.244 2.09312C212.244 0.941267 211.217 -0.000166119 209.96 -0.000166119C208.703 -0.000166119 207.676 0.941267 207.676 2.09312C207.676 3.24497 208.703 4.1864 209.96 4.1864C211.217 4.1864 212.244 3.24497 212.244 2.09312Z" fill="#2E2B67"/>
<path d="M238.202 2.09312C238.202 0.941267 237.175 -0.000166119 235.918 -0.000166119C234.661 -0.000166119 233.634 0.941267 233.634 2.09312C233.634 3.24497 234.661 4.1864 235.918 4.1864C237.175 4.1864 238.202 3.24497 238.202 2.09312Z" fill="#2E2B67"/>
</svg>
