<svg width="17" height="321" viewBox="0 0 17 321" fill="none" xmlns="http://www.w3.org/2000/svg">
<path d="M14.396 125.392H5V125.884H13.652L5 129.928V130.432L13.688 134.476H5V134.968H14.396V134.296L5.564 130.18L14.396 126.052V125.392ZM5 142.099H9.032C10.616 142.099 11.516 141.139 11.516 139.651C11.516 138.415 10.928 137.539 10.004 137.107L9.764 137.527C10.64 137.971 11.072 138.679 11.072 139.663C11.072 140.923 10.292 141.619 8.996 141.619H8.552V139.543C8.552 138.871 8.396 138.283 8.084 137.779C7.784 137.287 7.328 137.035 6.716 137.035C6.128 137.035 5.684 137.239 5.36 137.647C5.048 138.055 4.892 138.571 4.892 139.183C4.892 140.203 5.444 141.139 6.416 141.619H5V142.099ZM7.628 141.631C6.944 141.631 6.38 141.391 5.96 140.923C5.54 140.455 5.336 139.879 5.336 139.195C5.336 138.223 5.828 137.527 6.728 137.527C7.196 137.527 7.544 137.731 7.772 138.139C8 138.559 8.12 139.027 8.12 139.567V141.631H7.628ZM5 148.476V149.16L8.504 145.296L11.408 148.992V148.284L8.624 144.78V144.756H14.768V144.288H5V144.756H8.384V144.792L5 148.476ZM8.228 155.422C9.152 155.422 9.932 155.182 10.568 154.69C11.204 154.198 11.516 153.466 11.516 152.482C11.516 151.618 11.192 150.886 10.532 150.286C9.872 149.698 9.116 149.398 8.24 149.398H8.216C7.304 149.398 6.524 149.698 5.864 150.298C5.216 150.91 4.892 151.666 4.892 152.578C4.892 153.742 5.48 154.75 6.392 155.242L6.656 154.834C5.852 154.402 5.336 153.574 5.336 152.602C5.336 151.822 5.612 151.174 6.164 150.67C6.716 150.166 7.364 149.914 8.12 149.902V155.422H8.228ZM8.552 149.902C9.212 149.938 9.8 150.214 10.304 150.706C10.82 151.21 11.072 151.798 11.072 152.458C11.072 154.21 9.704 154.87 8.552 154.93V149.902ZM11.492 160.035C11.492 159.507 11.324 159.015 10.988 158.571C10.664 158.127 10.244 157.815 9.74 157.647H11.408V157.179H5V157.647H8.228C9.008 157.647 9.656 157.863 10.196 158.283C10.736 158.703 11.012 159.303 11.012 160.059V160.155H11.48C11.492 160.131 11.492 160.095 11.492 160.035ZM9.776 160.968C8.756 160.968 8.336 161.616 8.036 162.996C7.736 164.352 7.412 164.844 6.644 164.844C6.26 164.844 5.948 164.664 5.696 164.316C5.456 163.968 5.336 163.572 5.336 163.14C5.336 162.216 5.744 161.628 6.62 161.196L6.392 160.776C5.396 161.244 4.892 162.036 4.892 163.14C4.892 163.715 5.06 164.22 5.384 164.652C5.708 165.096 6.14 165.312 6.656 165.312C7.676 165.312 8.156 164.64 8.48 163.116C8.72 161.928 9.02 161.448 9.788 161.448C10.16 161.448 10.472 161.616 10.712 161.964C10.952 162.312 11.072 162.684 11.072 163.08C11.072 163.908 10.7 164.484 9.944 164.82L10.172 165.24C11.072 164.844 11.516 164.124 11.516 163.104C11.516 162.564 11.36 162.072 11.036 161.628C10.712 161.184 10.292 160.968 9.776 160.968ZM11.408 167.14H1.844L1.844 167.608H6.728C5.66 168.04 4.904 169.06 4.904 170.308C4.904 171.22 5.228 171.964 5.876 172.54C6.536 173.128 7.316 173.416 8.216 173.416C9.116 173.416 9.896 173.128 10.544 172.54C11.192 171.952 11.516 171.208 11.516 170.308C11.516 169.072 10.76 168.052 9.668 167.608H11.408V167.14ZM5.36 170.284C5.36 169.504 5.636 168.868 6.2 168.352C6.764 167.836 7.424 167.584 8.192 167.584H8.228C8.984 167.584 9.644 167.836 10.208 168.34C10.772 168.844 11.06 169.492 11.06 170.284C11.06 171.064 10.784 171.688 10.232 172.18C9.692 172.672 9.008 172.924 8.204 172.924H8.192C7.388 172.924 6.704 172.684 6.164 172.192C5.624 171.712 5.36 171.076 5.36 170.284ZM5 179.799H9.032C10.616 179.799 11.516 178.839 11.516 177.351C11.516 176.115 10.928 175.239 10.004 174.807L9.764 175.227C10.64 175.671 11.072 176.379 11.072 177.363C11.072 178.623 10.292 179.319 8.996 179.319H8.552V177.243C8.552 176.571 8.396 175.983 8.084 175.479C7.784 174.987 7.328 174.735 6.716 174.735C6.128 174.735 5.684 174.939 5.36 175.347C5.048 175.755 4.892 176.271 4.892 176.883C4.892 177.903 5.444 178.839 6.416 179.319H5V179.799ZM7.628 179.331C6.944 179.331 6.38 179.091 5.96 178.623C5.54 178.155 5.336 177.579 5.336 176.895C5.336 175.923 5.828 175.227 6.728 175.227C7.196 175.227 7.544 175.431 7.772 175.839C8 176.259 8.12 176.727 8.12 177.267V179.331H7.628ZM4.892 184.712C4.892 186.152 5.708 187.136 6.776 187.52L6.968 187.076C5.876 186.656 5.336 185.876 5.336 184.724C5.336 183.956 5.624 183.308 6.188 182.78C6.752 182.264 7.436 182 8.216 182C8.996 182 9.668 182.252 10.232 182.768C10.796 183.284 11.072 183.932 11.072 184.712C11.072 185.9 10.532 186.68 9.464 187.064L9.656 187.508C10.748 187.136 11.516 186.152 11.516 184.712C11.516 183.812 11.192 183.056 10.556 182.432C9.92 181.808 9.128 181.496 8.192 181.496C7.256 181.496 6.476 181.808 5.84 182.42C5.204 183.044 4.892 183.812 4.892 184.712ZM8.228 194.785C9.152 194.785 9.932 194.545 10.568 194.053C11.204 193.561 11.516 192.829 11.516 191.845C11.516 190.981 11.192 190.249 10.532 189.649C9.872 189.061 9.116 188.761 8.24 188.761H8.216C7.304 188.761 6.524 189.061 5.864 189.661C5.216 190.273 4.892 191.029 4.892 191.941C4.892 193.105 5.48 194.113 6.392 194.605L6.656 194.197C5.852 193.765 5.336 192.937 5.336 191.965C5.336 191.185 5.612 190.537 6.164 190.033C6.716 189.529 7.364 189.277 8.12 189.265V194.785H8.228ZM8.552 189.265C9.212 189.301 9.8 189.577 10.304 190.069C10.82 190.573 11.072 191.161 11.072 191.821C11.072 193.573 9.704 194.233 8.552 194.293V189.265Z" fill="#2E2B67"/>
<line x1="8.25" y1="215.25" x2="8.25" y2="320.75" stroke="#2E2B67" stroke-opacity="0.3" stroke-width="0.5" stroke-linecap="round"/>
<line x1="8.25" y1="0.25" x2="8.25" y2="105.75" stroke="#2E2B67" stroke-opacity="0.3" stroke-width="0.5" stroke-linecap="round"/>
</svg>
