<svg width="17" height="385" viewBox="0 0 17 385" fill="none" xmlns="http://www.w3.org/2000/svg">
<path d="M14.396 130.056V123.288H13.952V126.456H5V126.948H13.952V130.056H14.396ZM11.516 134.284C11.516 133.216 10.916 132.304 9.992 131.956H14.768V131.488H5V131.956H8.684C9.368 131.956 9.944 132.172 10.388 132.604C10.844 133.048 11.072 133.576 11.072 134.212C11.072 135.556 10.232 136.348 8.756 136.348H5V136.828H8.852C9.644 136.828 10.28 136.6 10.772 136.144C11.264 135.7 11.516 135.076 11.516 134.284ZM8.228 144.543C9.152 144.543 9.932 144.303 10.568 143.811C11.204 143.319 11.516 142.587 11.516 141.603C11.516 140.739 11.192 140.007 10.532 139.407C9.872 138.819 9.116 138.519 8.24 138.519H8.216C7.304 138.519 6.524 138.819 5.864 139.419C5.216 140.031 4.892 140.787 4.892 141.699C4.892 142.863 5.48 143.871 6.392 144.363L6.656 143.955C5.852 143.523 5.336 142.695 5.336 141.723C5.336 140.943 5.612 140.295 6.164 139.791C6.716 139.287 7.364 139.035 8.12 139.023V144.543H8.228ZM8.552 139.023C9.212 139.059 9.8 139.335 10.304 139.827C10.82 140.331 11.072 140.919 11.072 141.579C11.072 143.331 9.704 143.991 8.552 144.051V139.023ZM4.892 152.54C4.892 153.98 5.708 154.964 6.776 155.348L6.968 154.904C5.876 154.484 5.336 153.704 5.336 152.552C5.336 151.784 5.624 151.136 6.188 150.608C6.752 150.092 7.436 149.828 8.216 149.828C8.996 149.828 9.668 150.08 10.232 150.596C10.796 151.112 11.072 151.76 11.072 152.54C11.072 153.728 10.532 154.508 9.464 154.892L9.656 155.336C10.748 154.964 11.516 153.98 11.516 152.54C11.516 151.64 11.192 150.884 10.556 150.26C9.92 149.636 9.128 149.324 8.192 149.324C7.256 149.324 6.476 149.636 5.84 150.248C5.204 150.872 4.892 151.64 4.892 152.54ZM14.768 157.561V157.081H5V157.561H14.768ZM4.88 162.295C4.88 163.363 5.492 164.275 6.416 164.623H5V165.091H11.408V164.623H7.724C7.028 164.623 6.452 164.407 5.996 163.963C5.552 163.531 5.324 163.003 5.324 162.367C5.324 161.023 6.164 160.219 7.64 160.219H11.408V159.751H7.544C6.764 159.751 6.116 159.979 5.624 160.423C5.132 160.879 4.88 161.503 4.88 162.295ZM14.768 167.37H5V167.838H6.728C5.66 168.27 4.904 169.29 4.904 170.538C4.904 171.45 5.228 172.194 5.876 172.77C6.536 173.358 7.316 173.646 8.216 173.646C9.116 173.646 9.896 173.358 10.544 172.77C11.192 172.182 11.516 171.438 11.516 170.538C11.516 169.302 10.76 168.282 9.668 167.838H14.768V167.37ZM5.36 170.514C5.36 169.734 5.636 169.098 6.2 168.582C6.764 168.066 7.424 167.814 8.192 167.814H8.228C8.984 167.814 9.644 168.066 10.208 168.57C10.772 169.074 11.06 169.722 11.06 170.514C11.06 171.294 10.784 171.918 10.232 172.41C9.692 172.902 9.008 173.154 8.204 173.154H8.192C7.388 173.154 6.704 172.914 6.164 172.422C5.624 171.942 5.36 171.306 5.36 170.514ZM11.516 178.229C11.516 177.161 10.916 176.249 9.992 175.901H14.768V175.433H5V175.901H8.684C9.368 175.901 9.944 176.117 10.388 176.549C10.844 176.993 11.072 177.521 11.072 178.157C11.072 179.501 10.232 180.293 8.756 180.293H5V180.773H8.852C9.644 180.773 10.28 180.545 10.772 180.089C11.264 179.645 11.516 179.021 11.516 178.229ZM4.892 185.74C4.892 186.688 5.216 187.468 5.852 188.092C6.5 188.716 7.292 189.028 8.228 189.028C9.152 189.028 9.932 188.716 10.568 188.08C11.204 187.456 11.516 186.676 11.516 185.752C11.516 184.816 11.192 184.036 10.556 183.4C9.92 182.776 9.128 182.464 8.18 182.464C7.256 182.464 6.476 182.776 5.84 183.412C5.204 184.048 4.892 184.816 4.892 185.74ZM11.072 185.728C11.072 186.532 10.796 187.192 10.232 187.732C9.68 188.272 8.996 188.536 8.192 188.536C7.388 188.536 6.716 188.272 6.164 187.744C5.612 187.216 5.336 186.556 5.336 185.752C5.336 184.948 5.612 184.288 6.176 183.76C6.74 183.232 7.412 182.968 8.216 182.968C9.02 182.968 9.692 183.232 10.244 183.748C10.796 184.276 11.072 184.936 11.072 185.728ZM4.88 193.268C4.88 194.336 5.492 195.248 6.416 195.596H5V196.064H11.408V195.596H7.724C7.028 195.596 6.452 195.38 5.996 194.936C5.552 194.504 5.324 193.976 5.324 193.34C5.324 191.996 6.164 191.192 7.64 191.192H11.408V190.724H7.544C6.764 190.724 6.116 190.952 5.624 191.396C5.132 191.852 4.88 192.476 4.88 193.268ZM9.776 197.983C8.756 197.983 8.336 198.631 8.036 200.011C7.736 201.367 7.412 201.859 6.644 201.859C6.26 201.859 5.948 201.679 5.696 201.331C5.456 200.983 5.336 200.587 5.336 200.155C5.336 199.231 5.744 198.643 6.62 198.211L6.392 197.791C5.396 198.259 4.892 199.051 4.892 200.155C4.892 200.731 5.06 201.235 5.384 201.667C5.708 202.111 6.14 202.327 6.656 202.327C7.676 202.327 8.156 201.655 8.48 200.131C8.72 198.943 9.02 198.463 9.788 198.463C10.16 198.463 10.472 198.631 10.712 198.979C10.952 199.327 11.072 199.699 11.072 200.095C11.072 200.923 10.7 201.499 9.944 201.835L10.172 202.255C11.072 201.859 11.516 201.139 11.516 200.119C11.516 199.579 11.36 199.087 11.036 198.643C10.712 198.199 10.292 197.983 9.776 197.983ZM8.228 209.688C9.152 209.688 9.932 209.448 10.568 208.956C11.204 208.464 11.516 207.732 11.516 206.748C11.516 205.884 11.192 205.152 10.532 204.552C9.872 203.964 9.116 203.664 8.24 203.664H8.216C7.304 203.664 6.524 203.964 5.864 204.564C5.216 205.176 4.892 205.932 4.892 206.844C4.892 208.008 5.48 209.016 6.392 209.508L6.656 209.1C5.852 208.668 5.336 207.84 5.336 206.868C5.336 206.088 5.612 205.44 6.164 204.936C6.716 204.432 7.364 204.18 8.12 204.168V209.688H8.228ZM8.552 204.168C9.212 204.204 9.8 204.48 10.304 204.972C10.82 205.476 11.072 206.064 11.072 206.724C11.072 208.476 9.704 209.136 8.552 209.196V204.168ZM11.516 217.756C11.516 216.688 10.916 215.776 9.992 215.428H11.408V214.96H5V215.428H8.684C9.368 215.428 9.944 215.644 10.388 216.076C10.844 216.52 11.072 217.048 11.072 217.684C11.072 219.028 10.232 219.82 8.756 219.82H5V220.3H8.852C9.644 220.3 10.28 220.072 10.772 219.616C11.264 219.172 11.516 218.548 11.516 217.756ZM8.228 228.016C9.152 228.016 9.932 227.776 10.568 227.284C11.204 226.792 11.516 226.06 11.516 225.076C11.516 224.212 11.192 223.48 10.532 222.88C9.872 222.292 9.116 221.992 8.24 221.992H8.216C7.304 221.992 6.524 222.292 5.864 222.892C5.216 223.504 4.892 224.26 4.892 225.172C4.892 226.336 5.48 227.344 6.392 227.836L6.656 227.428C5.852 226.996 5.336 226.168 5.336 225.196C5.336 224.416 5.612 223.768 6.164 223.264C6.716 222.76 7.364 222.508 8.12 222.496L8.12 228.016H8.228ZM8.552 222.496C9.212 222.532 9.8 222.808 10.304 223.3C10.82 223.804 11.072 224.392 11.072 225.052C11.072 226.804 9.704 227.464 8.552 227.524L8.552 222.496ZM10.976 232.211H11.408V230.495H13.244V230.027H11.408V228.815H10.976V230.027H6.692C5.528 230.027 4.952 230.567 4.952 231.659C4.952 231.815 4.976 232.007 5.024 232.211H5.456C5.42 232.031 5.396 231.851 5.396 231.695C5.396 230.891 5.84 230.495 6.74 230.495H10.976V232.211ZM11.408 233.024L5 235.292V235.772L10.76 237.836L5 239.876V240.356L11.408 242.624V242.156L5.564 240.116L11.408 238.064V237.596L5.564 235.532L11.408 233.54V233.024ZM4.892 246.783C4.892 247.731 5.216 248.511 5.852 249.135C6.5 249.759 7.292 250.071 8.228 250.071C9.152 250.071 9.932 249.759 10.568 249.123C11.204 248.499 11.516 247.719 11.516 246.795C11.516 245.859 11.192 245.079 10.556 244.443C9.92 243.819 9.128 243.507 8.18 243.507C7.256 243.507 6.476 243.819 5.84 244.455C5.204 245.091 4.892 245.859 4.892 246.783ZM11.072 246.771C11.072 247.575 10.796 248.235 10.232 248.775C9.68 249.315 8.996 249.579 8.192 249.579C7.388 249.579 6.716 249.315 6.164 248.787C5.612 248.259 5.336 247.599 5.336 246.795C5.336 245.991 5.612 245.331 6.176 244.803C6.74 244.275 7.412 244.011 8.216 244.011C9.02 244.011 9.692 244.275 10.244 244.791C10.796 245.319 11.072 245.979 11.072 246.771ZM11.492 254.719C11.492 254.191 11.324 253.699 10.988 253.255C10.664 252.811 10.244 252.499 9.74 252.331H11.408V251.863H5V252.331H8.228C9.008 252.331 9.656 252.547 10.196 252.967C10.736 253.387 11.012 253.987 11.012 254.743V254.839H11.48C11.492 254.815 11.492 254.779 11.492 254.719ZM5 260.293V260.977L8.504 257.113L11.408 260.809L11.408 260.101L8.624 256.597V256.573H14.768V256.105H5V256.573H8.384V256.609L5 260.293Z" fill="#2E2B67"/>
<line x1="9.25" y1="279.25" x2="9.25" y2="384.75" stroke="#2E2B67" stroke-opacity="0.3" stroke-width="0.5" stroke-linecap="round"/>
<line x1="9.25" y1="0.25" x2="9.25" y2="105.75" stroke="#2E2B67" stroke-opacity="0.3" stroke-width="0.5" stroke-linecap="round"/>
</svg>
