<svg width="60" height="68" viewBox="0 0 60 68" fill="none" xmlns="http://www.w3.org/2000/svg">
<path fill-rule="evenodd" clip-rule="evenodd" d="M57.7948 27.6418H13.8156L56.0581 15.4048C56.3864 15.3096 56.6633 15.0875 56.8285 14.7884C56.9936 14.4888 57.0329 14.1364 56.9377 13.808L54.7272 6.1769C53.844 3.12897 51.006 1 47.8257 1C47.1555 1 46.4878 1.09517 45.8402 1.28249L6.17889 12.7718C4.34449 13.303 2.8243 14.5226 1.89729 16.2049C0.970772 17.8872 0.753243 19.8243 1.28448 21.6582L3.44416 29.1136V59.8261C3.44416 63.7819 6.66229 67 10.6176 67H26.1075C26.8195 67 27.3966 66.4229 27.3966 65.7109C27.3966 64.9989 26.8195 64.4219 26.1075 64.4219H10.6181C8.08378 64.4219 6.02229 62.3604 6.02229 59.8261V42.2837H12.6262H12.6292H12.6318H22.7267H22.7297H22.7328H32.8277H32.8308H32.8338H42.9288H42.9318H42.9343H56.5057V59.8261C56.5057 62.3604 54.4442 64.4219 51.9099 64.4219H36.42C35.7085 64.4219 35.1309 64.9989 35.1309 65.7109C35.1309 66.4229 35.7085 67 36.42 67H51.9099C55.8657 67 59.0838 63.7819 59.0838 59.8261V28.9309C59.0838 28.2189 58.5068 27.6418 57.7948 27.6418ZM35.0645 39.7056L40.5415 30.2199H47.6651L42.1885 39.7056H35.0645ZM24.9635 39.7056L30.4405 30.2199H37.564L32.0875 39.7056H24.9635ZM14.8629 39.7056L20.3394 30.2199H27.4635L21.9865 39.7056H14.8629ZM19.6556 23.0178L10.4842 14.2089L17.356 12.2184C17.4043 12.2889 17.4607 12.3553 17.5252 12.4173L26.6966 21.2262L19.8248 23.2167C19.7765 23.1462 19.7196 23.0792 19.6556 23.0178ZM36.9291 6.79625L46.1006 15.6052L39.2287 17.5957C39.1804 17.5252 39.124 17.4582 39.0596 17.3968L29.8881 8.58784L36.7599 6.59735C36.8082 6.66785 36.8646 6.73431 36.9291 6.79625ZM27.2269 9.60701L36.3983 18.4154L29.5265 20.4064C29.4782 20.3359 29.4218 20.269 29.3573 20.2075L20.1859 11.3986L27.0577 9.40811C27.1065 9.4781 27.1629 9.54507 27.2269 9.60701ZM46.5578 3.7589C46.9717 3.63905 47.3982 3.57812 47.8257 3.57812C49.8655 3.57812 51.6848 4.94171 52.2508 6.89444L54.1028 13.2869L48.931 14.7849C48.8821 14.7144 48.8257 14.6479 48.7613 14.586L39.5903 5.77759L46.5578 3.7589ZM4.15566 17.4486C4.74984 16.3696 5.72318 15.5881 6.89643 15.2482L7.65376 15.0286C7.7026 15.0991 7.759 15.1661 7.82295 15.2275L16.9944 24.0365L5.61291 27.3336L3.76089 20.9412C3.421 19.7684 3.56149 18.5282 4.15566 17.4486ZM6.02229 30.2199H17.3625L11.886 39.7056H6.02229V30.2199ZM45.1655 39.7056L50.642 30.2199H56.5057V39.7056H45.1655Z" fill="#FAFAFA" stroke="#FAFAFA" stroke-width="0.5"/>
<path fill-rule="evenodd" clip-rule="evenodd" d="M40.1774 53.2217C40.1774 52.761 39.9317 52.3355 39.5329 52.1053L28.2078 45.5669C27.809 45.3368 27.3175 45.3368 26.9187 45.5669C26.5199 45.797 26.2742 46.2225 26.2742 46.6832V59.7602C26.2742 60.2204 26.5199 60.6459 26.9187 60.876C27.1181 60.9913 27.3407 61.0492 27.5632 61.0492C27.7858 61.0492 28.0084 60.9913 28.2078 60.876L39.5329 54.338C39.9317 54.1079 40.1774 53.6824 40.1774 53.2217ZM28.8523 57.5275V48.9159L36.3102 53.2217L28.8523 57.5275Z" fill="#FAFAFA" stroke="#FAFAFA" stroke-width="0.5"/>
<path fill-rule="evenodd" clip-rule="evenodd" d="M31.2636 64.4219C30.5536 64.4219 29.9746 65.0009 29.9746 65.7109C29.9746 66.4208 30.5536 66.9998 31.2636 66.9998C31.974 66.9998 32.5526 66.4208 32.5526 65.7109C32.5526 65.0009 31.974 64.4219 31.2636 64.4219Z" fill="#FAFAFA" stroke="#FAFAFA" stroke-width="0.5"/>
</svg>
