<svg width="67" height="67" viewBox="0 0 67 67" fill="none" xmlns="http://www.w3.org/2000/svg">
<path d="M65.0371 0H57.1855C56.1015 0 55.2227 0.878852 55.2227 1.96289V3.92578H39.0511C38.2408 1.64124 36.059 0 33.5 0C30.941 0 28.7592 1.64124 27.9489 3.92578H11.7773V1.96289C11.7773 0.878852 10.8985 0 9.81445 0H1.96289C0.878852 0 0 0.878852 0 1.96289V9.81445C0 10.8985 0.878852 11.7773 1.96289 11.7773H9.81445C10.8985 11.7773 11.7773 10.8985 11.7773 9.81445V7.82539H19.94C12.8584 12.3105 8.55362 19.8874 8.03581 27.9309C5.72353 28.726 4.05664 30.9213 4.05664 33.5C4.05664 36.747 6.6983 39.3887 9.94531 39.3887C13.1923 39.3887 15.834 36.747 15.834 33.5C15.834 30.9639 14.2225 28.7972 11.9697 27.9699C12.6667 18.7251 19.3237 10.7627 28.2258 8.5035C29.1908 10.4418 31.1918 11.7773 33.5 11.7773C35.8082 11.7773 37.8092 10.4418 38.7742 8.50364C47.6764 10.7628 54.3333 18.7252 55.0303 27.97C52.7775 28.7972 51.166 30.9639 51.166 33.5C51.166 36.747 53.8077 39.3887 57.0547 39.3887C60.3017 39.3887 62.9434 36.747 62.9434 33.5C62.9434 30.9213 61.2765 28.726 58.9642 27.9309C58.4453 19.8713 54.1278 12.3279 47.06 7.85156H55.2227V9.81445C55.2227 10.8985 56.1015 11.7773 57.1855 11.7773H65.0371C66.1211 11.7773 67 10.8985 67 9.81445V1.96289C67 0.878852 66.1211 0 65.0371 0ZM7.85156 7.85156H3.92578V3.92578H7.85156V7.85156ZM9.94531 35.4629C8.86297 35.4629 7.98242 34.5823 7.98242 33.5C7.98242 32.4177 8.86297 31.5371 9.94531 31.5371C11.0277 31.5371 11.9082 32.4177 11.9082 33.5C11.9082 34.5823 11.0277 35.4629 9.94531 35.4629ZM33.5 7.85156C32.4177 7.85156 31.5371 6.97101 31.5371 5.88867C31.5371 4.80633 32.4177 3.92578 33.5 3.92578C34.5823 3.92578 35.4629 4.80633 35.4629 5.88867C35.4629 6.97101 34.5823 7.85156 33.5 7.85156ZM57.0547 31.5371C58.137 31.5371 59.0176 32.4177 59.0176 33.5C59.0176 34.5823 58.137 35.4629 57.0547 35.4629C55.9724 35.4629 55.0918 34.5823 55.0918 33.5C55.0918 32.4177 55.9724 31.5371 57.0547 31.5371ZM63.0742 7.85156H59.1484V3.92578H63.0742V7.85156Z" fill="#FAFAFA"/>
<path d="M50.8362 40.2628L35.1331 16.7082C35.1326 16.7075 35.1319 16.7067 35.1314 16.7058C35.1258 16.6974 35.1196 16.6894 35.1139 16.6811C35.0869 16.642 35.0585 16.6043 35.0289 16.5676C34.2018 15.5398 32.6268 15.6091 31.8861 16.6811C31.8803 16.6894 31.8742 16.6974 31.8686 16.7058C31.868 16.7067 31.8674 16.7073 31.8669 16.7082L16.1637 40.2629C15.6446 41.0414 15.7473 42.0781 16.409 42.7397C20.3252 46.6559 22.8178 51.7751 23.4968 57.2521C23.1921 57.4985 22.8978 57.7624 22.6188 58.0479C20.7751 59.9338 19.7598 62.4161 19.7598 65.0372C19.7598 66.1213 20.6386 67.0001 21.7226 67.0001H45.2773C46.3614 67.0001 47.2402 66.1213 47.2402 65.0372C47.2402 62.4161 46.2249 59.9338 44.3813 58.0478C44.1022 57.7622 43.808 57.4984 43.5031 57.252C44.182 51.7748 46.6747 46.6555 50.5909 42.7397C51.2526 42.0781 51.3554 41.0413 50.8362 40.2628ZM33.5 39.3888C34.5823 39.3888 35.4629 40.2693 35.4629 41.3517C35.4629 42.434 34.5823 43.3146 33.5 43.3146C32.4176 43.3146 31.5371 42.434 31.5371 41.3517C31.5371 40.2693 32.4176 39.3888 33.5 39.3888ZM24.0203 63.0743C24.837 60.7407 27.0508 59.0177 29.5742 59.0177H37.4258C39.9491 59.0177 42.163 60.7407 42.9797 63.0743H24.0203ZM39.8133 55.3907C39.0412 55.1936 38.2409 55.0919 37.4258 55.0919H29.5742C28.7591 55.0919 27.9587 55.1936 27.1867 55.3908C26.268 50.1003 23.8823 45.1548 20.2969 41.1403L31.5371 24.28V35.8007C29.2524 36.611 27.6113 38.7929 27.6113 41.3518C27.6113 44.5988 30.253 47.2405 33.5 47.2405C36.747 47.2405 39.3887 44.5988 39.3887 41.3518C39.3887 38.7929 37.7476 36.611 35.4629 35.8007V24.28L46.7032 41.1403C43.1176 45.1544 40.7318 50.1 39.8133 55.3907Z" fill="#FAFAFA"/>
</svg>
