<svg width="69" height="60" viewBox="0 0 69 60" fill="none" xmlns="http://www.w3.org/2000/svg">
<path d="M34.1333 0C15.3853 0 0 15.252 0 34V50C0 53.3085 2.69146 56 6 56H7.99999V36H6C5.29546 36 4.62866 36.1442 4 36.3684V34C4 17.4571 17.5904 4 34.1333 4C50.6762 4 64.2666 17.4571 64.2666 34V36.3684C63.638 36.1442 62.9712 36 62.2666 36H60.2666V56H62.2666C65.5751 56 68.2666 53.3085 68.2666 50V34C68.2666 15.252 52.8813 0 34.1333 0Z" fill="#FAFAFA"/>
<path d="M18 32H16C13.7908 32 12 33.7908 12 36V56C12 58.2092 13.7908 60 16 60H18C19.1045 60 20 59.1045 20 58V34C20 32.8955 19.1045 32 18 32Z" fill="#FAFAFA"/>
<path d="M52.2666 32H50.2666C49.1621 32 48.2666 32.8955 48.2666 34V58C48.2666 59.1045 49.1621 60 50.2666 60H52.2666C54.4758 60 56.2666 58.2092 56.2666 56V36C56.2666 33.7908 54.4758 32 52.2666 32Z" fill="#FAFAFA"/>
</svg>
