<svg width="65" height="69" viewBox="0 0 65 69" fill="none" xmlns="http://www.w3.org/2000/svg">
<path d="M1.86156 14.8029L22.3356 7.27476L22.337 7.27425C23.406 6.88477 24.6047 7.42994 24.9999 8.50741C25.3945 9.58309 24.8417 10.773 23.7687 11.1707L23.7674 11.1712L8.58407 16.7505L32.5 25.5631L56.4162 16.7504L41.2329 11.1682L41.2325 11.168L41.405 10.6987C40.5892 10.3995 40.1702 9.49229 40.4695 8.67644C40.7687 7.86059 41.6759 7.44479 42.4918 7.74089L1.86156 14.8029ZM1.86156 14.8029C1.86147 14.803 1.86137 14.803 1.86128 14.803L1.86156 14.8029Z" fill="#FAFAFA" stroke="#FAFAFA"/>
<path d="M13.8267 58.7153L13.8265 58.7159C13.4329 59.7931 13.9837 60.9845 15.0593 61.3791C15.0594 61.3791 15.0594 61.3792 15.0595 61.3792L31.7831 67.5206C32.016 67.6091 32.2584 67.6499 32.5 67.6499C32.7426 67.6499 32.9844 67.6087 33.2187 67.5211C33.2193 67.5209 33.2199 67.5206 33.2205 67.5204L49.9438 61.3791L49.9452 61.3786C51.0181 60.9809 51.5709 59.791 51.1764 58.7153L51.1758 58.7137C50.7788 57.6427 49.5898 57.0837 48.5117 57.4828C48.5115 57.4829 48.5112 57.483 48.5109 57.4831L32.5 63.3633L16.4908 57.4826L16.4906 57.4825C15.4161 57.0884 14.2213 57.6395 13.8267 58.7153Z" fill="#FAFAFA" stroke="#FAFAFA"/>
<path d="M0.5 45.919C0.5 47.0646 1.42946 47.994 2.575 47.994C3.72054 47.994 4.65 47.0646 4.65 45.919V16.75C4.65 15.6045 3.72054 14.675 2.575 14.675C1.42946 14.675 0.5 15.6045 0.5 16.75V45.919Z" fill="#FAFAFA" stroke="#FAFAFA"/>
<path d="M60.35 45.919C60.35 47.0646 61.2794 47.994 62.425 47.994C63.5705 47.994 64.5 47.0646 64.5 45.919V16.75C64.5 15.6045 63.5705 14.675 62.425 14.675C61.2794 14.675 60.35 15.6045 60.35 16.75V45.919Z" fill="#FAFAFA" stroke="#FAFAFA"/>
<path d="M30.425 15.175C30.425 16.3205 31.3545 17.25 32.5 17.25C33.6456 17.25 34.575 16.3205 34.575 15.175V2.575C34.575 1.42946 33.6456 0.5 32.5 0.5C31.3545 0.5 30.425 1.42946 30.425 2.575V15.175Z" fill="#FAFAFA" stroke="#FAFAFA"/>
<path d="M59.1923 58.9795L59.1941 58.9813C59.5993 59.3824 60.1302 59.5858 60.661 59.5858C61.1913 59.5858 61.7233 59.3826 62.1265 58.9795C62.936 58.17 62.936 56.8548 62.1265 56.0453L54.4405 48.3593L54.0933 48.7065L54.4405 48.3593C53.631 47.5498 52.3158 47.5498 51.5063 48.3593C50.6968 49.1688 50.6968 50.484 51.5063 51.2935L59.1923 58.9795Z" fill="#FAFAFA" stroke="#FAFAFA"/>
<path d="M2.87044 58.9795L2.87226 58.9813C3.27747 59.3824 3.80831 59.5858 4.33909 59.5858C4.86941 59.5858 5.40146 59.3826 5.8046 58.9795L13.4906 51.2935C14.3001 50.484 14.3001 49.1688 13.4906 48.3593C12.6811 47.5498 11.3659 47.5498 10.5564 48.3593L2.87044 56.0453C2.06093 56.8548 2.06093 58.17 2.87044 58.9795Z" fill="#FAFAFA" stroke="#FAFAFA"/>
<path d="M30.425 65.5749C30.425 66.7205 31.3545 67.6499 32.5 67.6499C33.6456 67.6499 34.575 66.7205 34.575 65.5749V27.775C34.575 26.6294 33.6456 25.7 32.5 25.7C31.3545 25.7 30.425 26.6294 30.425 27.775V65.5749Z" fill="#FAFAFA" stroke="#FAFAFA"/>
</svg>
