<svg width="63" height="59" viewBox="0 0 63 59" fill="none" xmlns="http://www.w3.org/2000/svg">
<path d="M15.7801 41.6211L15.332 41.4587C14.992 41.3355 14.6393 41.2369 14.2751 41.1649L14.275 41.1649C12.1345 40.7415 9.7892 41.2805 7.84727 42.6672C5.06142 44.6565 4.32354 47.5031 4.2213 47.9601L4.21903 47.9702L4.21635 47.9802C3.57887 50.361 2.37306 52.6284 0.728988 54.5425C0.39281 54.9339 0.431114 55.5224 0.815487 55.8671L15.7801 41.6211ZM15.7801 41.6211L15.9637 41.1813M15.7801 41.6211L15.9637 41.1813M15.9637 41.1813C18.1338 35.9848 24.7107 27.4704 33.4354 18.7459C39.3101 12.8712 45.282 7.79806 50.2468 4.45648C53.1769 2.48442 55.488 1.27609 57.2614 0.771574C59.0333 0.267476 60.145 0.494637 60.8492 1.1987C61.5533 1.90292 61.7804 3.01464 61.2763 4.78654C60.7718 6.55995 59.5634 8.87114 57.5914 11.8013C54.25 16.766 49.1767 22.7381 43.3021 28.6127C38.7513 33.1635 34.2227 37.1517 30.1899 40.2311C26.1467 43.3185 22.635 45.4666 20.1134 46.3706L19.7214 46.5111M15.9637 41.1813L19.7214 46.5111M14.372 40.6744C14.7613 40.7514 15.1385 40.8568 15.5023 40.9887L14.372 40.6744ZM14.372 40.6744C12.085 40.222 9.60101 40.8005 7.5567 42.2603M14.372 40.6744L7.5567 42.2603M19.7214 46.5111L19.7887 46.922M19.7214 46.5111L19.7887 46.922M19.7887 46.922C20.1929 49.3924 19.3798 52.1199 17.4342 54.2109C17.2754 54.38 16.4484 55.2417 15.3613 56.018C13.0362 57.6783 10.4087 58.5 7.88657 58.5C5.27062 58.5 2.76815 57.6171 0.815559 55.8672L19.7887 46.922ZM16.0468 52.9165L16.0456 52.9178C15.9593 53.0098 15.2238 53.7849 14.2589 54.4737C10.7628 56.9697 6.42954 57.2923 3.24153 55.3215L2.78239 55.0377L3.10048 54.6016C4.46065 52.7368 5.47138 50.6366 6.05342 48.4545L6.05837 48.4358C6.06292 48.4186 6.06688 48.4019 6.07025 48.3856L6.07116 48.3813C6.08437 48.3204 6.62344 45.8723 8.9498 44.2112C10.4447 43.1435 12.2488 42.6982 13.9074 43.0261L16.0468 52.9165ZM16.0468 52.9165C18.0718 50.7405 18.6043 47.5236 17.1757 45.2479C16.4458 44.0853 15.2809 43.2975 13.9074 43.0261L16.0468 52.9165ZM34.7772 20.0874C34.7771 20.0874 34.7771 20.0874 34.7771 20.0874C32.5473 22.317 30.434 24.5672 28.4954 26.7602L28.184 27.1125L28.5165 27.4449L34.607 33.5354L34.9396 33.868L35.2918 33.5564C37.4177 31.6756 39.6542 29.5771 41.9605 27.2708C47.4512 21.7803 52.2858 16.1439 55.5707 11.3962C57.593 8.4737 58.6217 6.4858 59.1379 5.16254C59.6528 3.84262 59.6691 3.15526 59.6269 2.84827L59.5753 2.47232L59.1993 2.42094C58.8925 2.37901 58.2054 2.39508 56.8854 2.90995C55.5622 3.42606 53.5744 4.4546 50.6517 6.47696L50.9362 6.88813M34.7772 20.0874L35.1307 20.441C40.6069 14.9647 46.2202 10.1516 50.9362 6.88813M34.7772 20.0874C40.2678 14.5967 45.9041 9.76225 50.6517 6.47697L50.9362 6.88813M34.7772 20.0874L50.9362 6.88813M7.5567 42.2603C4.62312 44.3551 3.84619 47.3466 3.73336 47.8509L7.5567 42.2603ZM18.8659 44.3793L19.0757 44.7304L19.4614 44.5943C21.3112 43.942 23.9743 42.4098 27.1781 40.1036L27.6553 39.76L27.2395 39.3442L22.7004 34.8051L22.2855 34.3903L21.9417 34.8657C19.8186 37.8017 18.2685 40.3936 17.5393 42.3431L17.4132 42.6803L17.693 42.9068C18.3573 43.4449 18.7404 44.1493 18.8431 44.338C18.8537 44.3576 18.8613 44.3716 18.8659 44.3793ZM28.8766 38.2985L29.188 38.6099L29.5363 38.3403C30.6682 37.4641 31.8546 36.504 33.0858 35.4642L33.5013 35.1133L33.1167 34.7287L27.3232 28.9352L26.9388 28.5508L26.5879 28.9659C25.5622 30.1791 24.5994 31.3656 23.709 32.5118L23.4384 32.8602L23.7503 33.1721L28.8766 38.2985Z" fill="#FAFAFA" stroke="#FAFAFA"/>
<path d="M34.5 34.5L27 27.5L22 33L27 39H30.5L34.5 34.5Z" fill="#FAFAFA"/>
</svg>
