<svg width="71" height="67" viewBox="0 0 71 67" fill="none" xmlns="http://www.w3.org/2000/svg">
<path d="M0 0V58.2781H22.7882V62.445H18.6231V66.6053H52.3768V62.445H48.2116V58.2781H71V0H0ZM44.0512 62.445H26.9487V58.2781H44.0513V62.445H44.0512ZM66.8397 54.1178H4.1603V45.7871H66.8396V54.1178H66.8397ZM66.8397 41.6268H4.1603V4.16043H66.8396V41.6268H66.8397Z" fill="#FAFAFA"/>
<path d="M28.2812 15.3742L25.3394 12.4324L14.8782 22.8936L25.3394 33.3548L28.2812 30.413L20.7617 22.8936L28.2812 15.3742Z" fill="#FAFAFA"/>
<path d="M45.6607 12.4324L42.7189 15.3742L50.2384 22.8936L42.7189 30.413L45.6607 33.3548L56.1218 22.8936L45.6607 12.4324Z" fill="#FAFAFA"/>
<path d="M35.8745 10.349L31.0449 34.6282L35.1255 35.4399L39.9551 11.1607L35.8745 10.349Z" fill="#FAFAFA"/>
</svg>
