<svg width="69" height="55" viewBox="0 0 69 55" fill="none" xmlns="http://www.w3.org/2000/svg">
<path d="M66.0978 9.25725C64.7536 7.84903 62.8973 7.01691 60.785 7.01691H50.1594V6.88889C50.1594 5.28865 49.5193 3.75242 48.4312 2.72826C47.343 1.6401 45.8708 1 44.2705 1H25.0676C23.4034 1 21.9312 1.6401 20.843 2.72826C19.7548 3.81643 19.1147 5.28865 19.1147 6.88889V7.01691H8.55314C6.44082 7.01691 4.58454 7.84903 3.24034 9.25725C1.89614 10.6014 1 12.5217 1 14.57V46.4469C1 48.5592 1.83213 50.4155 3.24034 51.7597C4.58454 53.1039 6.50483 54 8.55314 54H60.785C62.8973 54 64.7536 53.1679 66.0978 51.7597C67.442 50.4155 68.3382 48.4952 68.3382 46.4469V14.57C68.3382 12.4577 67.506 10.6014 66.0978 9.25725ZM65.0097 46.4469H64.9457C64.9457 47.599 64.4976 48.6232 63.7295 49.3913C62.9614 50.1594 61.9372 50.6075 60.785 50.6075H8.55314C7.40097 50.6075 6.37681 50.1594 5.6087 49.3913C4.84058 48.6232 4.39251 47.599 4.39251 46.4469V14.57C4.39251 13.4179 4.84058 12.3937 5.6087 11.6256C6.37681 10.8575 7.40097 10.4094 8.55314 10.4094H20.907C21.8672 10.4094 22.6353 9.6413 22.6353 8.68116V6.82488C22.6353 6.12077 22.8913 5.48068 23.3394 5.03261C23.7874 4.58454 24.4275 4.3285 25.1316 4.3285H44.2705C44.9746 4.3285 45.6147 4.58454 46.0628 5.03261C46.5109 5.48068 46.7669 6.12077 46.7669 6.82488V8.68116C46.7669 9.6413 47.535 10.4094 48.4952 10.4094H60.849C62.0012 10.4094 63.0254 10.8575 63.7935 11.6256C64.5616 12.3937 65.0097 13.4179 65.0097 14.57V46.4469Z" fill="#FAFAFA" stroke="#FAFAFA"/>
<path d="M34.6691 14.7622C30.3164 14.7622 26.3479 16.5545 23.5314 19.3709C20.651 22.2513 18.9227 26.1559 18.9227 30.5086C18.9227 34.8612 20.715 38.8298 23.5314 41.6463C26.4119 44.5267 30.3164 46.255 34.6691 46.255C39.0218 46.255 42.9904 44.4627 45.8068 41.6463C48.6872 38.7658 50.4155 34.8612 50.4155 30.5086C50.4155 26.1559 48.6232 22.1873 45.8068 19.3709C42.9904 16.5545 39.0218 14.7622 34.6691 14.7622ZM43.3744 39.2779C41.1341 41.4542 38.0616 42.8624 34.6691 42.8624C31.2766 42.8624 28.2041 41.4542 25.9638 39.2779C23.7235 37.0376 22.3793 33.9651 22.3793 30.5726C22.3793 27.1801 23.7875 24.1076 25.9638 21.8673C28.2041 19.6269 31.2766 18.2827 34.6691 18.2827C38.0616 18.2827 41.1341 19.6909 43.3744 21.8673C45.6148 24.1076 46.959 27.1801 46.959 30.5726C47.023 33.9651 45.6148 37.0376 43.3744 39.2779Z" fill="#FAFAFA" stroke="#FAFAFA"/>
<path d="M57.4565 20.9712C59.1888 20.9712 60.593 19.5669 60.593 17.8347C60.593 16.1025 59.1888 14.6982 57.4565 14.6982C55.7243 14.6982 54.3201 16.1025 54.3201 17.8347C54.3201 19.5669 55.7243 20.9712 57.4565 20.9712Z" fill="#FAFAFA" stroke="#FAFAFA"/>
</svg>
