<svg width="66" height="66" viewBox="0 0 66 66" fill="none" xmlns="http://www.w3.org/2000/svg">
<path d="M30.1833 31.6667C30.1833 32.4855 30.8477 33.15 31.6666 33.15C32.4854 33.15 33.1499 32.4855 33.1499 31.6667V27.8167H35.6666C38.6908 27.8167 41.1499 25.3575 41.1499 22.3333C41.1499 19.3092 38.6908 16.85 35.6666 16.85H31.6666C30.8477 16.85 30.1833 17.5145 30.1833 18.3333V31.6667ZM35.6666 24.85H33.1499V19.8167H35.6666C37.0556 19.8167 38.1833 20.9467 38.1833 22.3333C38.1833 23.7199 37.0556 24.85 35.6666 24.85Z" fill="#FAFAFA" stroke="#FAFAFA" stroke-width="0.3"/>
<path d="M38.6165 32.7167L38.6171 32.7172C38.9074 33.0046 39.287 33.15 39.6666 33.15C40.0461 33.15 40.4261 33.0046 40.714 32.7167C41.2926 32.1381 41.2926 31.1978 40.714 30.6192L35.3807 25.2859C34.8021 24.7073 33.8618 24.7073 33.2832 25.2859C32.7046 25.8645 32.7046 26.8048 33.2832 27.3834L38.6165 32.7167Z" fill="#FAFAFA" stroke="#FAFAFA" stroke-width="0.3"/>
<path d="M18.2459 32.0942L18.2457 32.0937L14.2459 18.7608C14.2458 18.7607 14.2458 18.7607 14.2458 18.7606C14.0084 17.9769 14.4539 17.1495 15.2394 16.9124L15.2402 16.9121L15.2402 16.9121C16.0227 16.6809 16.8502 17.1223 17.0876 17.9058L17.0878 17.9062L19.6668 26.5046L22.2457 17.9091L18.2459 32.0942ZM18.2459 32.0942C18.4356 32.7196 19.0109 33.15 19.6667 33.15C20.3223 33.15 20.8981 32.7198 21.0851 32.0964L25.085 18.7633C25.3224 17.9769 24.877 17.1522 24.0914 16.915L24.0909 16.9149M18.2459 32.0942L24.0909 16.9149M24.0909 16.9149C23.3142 16.6836 22.4805 17.1217 22.2457 17.9088L24.0909 16.9149Z" fill="#FAFAFA" stroke="#FAFAFA" stroke-width="0.3"/>
<path d="M46.1833 21C46.1833 23.2882 48.0451 25.15 50.3333 25.15C52.6214 25.15 54.4833 23.2882 54.4833 21C54.4833 18.7118 52.6214 16.85 50.3333 16.85C48.0451 16.85 46.1833 18.7118 46.1833 21ZM49.1499 21C49.1499 20.347 49.6826 19.8167 50.3333 19.8167C50.9839 19.8167 51.5166 20.347 51.5166 21C51.5166 21.653 50.9839 22.1833 50.3333 22.1833C49.6826 22.1833 49.1499 21.653 49.1499 21Z" fill="#FAFAFA" stroke="#FAFAFA" stroke-width="0.3"/>
<path d="M40.0443 45.4687L40.0446 45.4694C40.249 46.0738 40.8151 46.4833 41.4533 46.4833H58.3333C62.0935 46.4833 65.15 43.4241 65.15 39.6667V15.6667C65.15 11.9092 62.0935 8.85 58.3333 8.85H7.66667C3.90645 8.85 0.85 11.9092 0.85 15.6667V39.6667C0.85 43.4241 3.90645 46.4833 7.66667 46.4833H24.5467C25.1846 46.4833 25.7511 46.074 25.9529 45.4716L25.953 45.4714L27.1175 41.9725C27.1176 41.9721 27.1178 41.9717 27.1179 41.9713C27.2926 41.4776 27.7491 41.15 28.2533 41.15H37.7467C38.253 41.15 38.7107 41.4796 38.874 41.9498C38.8741 41.95 38.8742 41.9502 38.8743 41.9505L40.0443 45.4687ZM24.3118 41.0089L24.311 41.0114L23.4784 43.5167H7.66667C5.54418 43.5167 3.81667 41.7892 3.81667 39.6667V15.6667C3.81667 13.5442 5.54418 11.8167 7.66667 11.8167H58.3333C60.4558 11.8167 62.1833 13.5442 62.1833 15.6667V39.6667C62.1833 41.7892 60.4558 43.5167 58.3333 43.5167H42.5216L41.6837 40.9927L41.6829 40.9903C41.0941 39.3123 39.5152 38.1833 37.7493 38.1833H28.2533C26.487 38.1833 24.9085 39.3128 24.3118 41.0089Z" fill="#FAFAFA" stroke="#FAFAFA" stroke-width="0.3"/>
<path d="M54.1833 10.3333C54.1833 11.1522 54.8478 11.8167 55.6667 11.8167C56.4855 11.8167 57.15 11.1522 57.15 10.3333V7.66667C57.15 3.9092 54.0935 0.85 50.3333 0.85H15.6667C11.9065 0.85 8.85 3.9092 8.85 7.66667V10.3333C8.85 11.1522 9.51449 11.8167 10.3333 11.8167C11.1522 11.8167 11.8167 11.1522 11.8167 10.3333V7.66667C11.8167 5.54418 13.5442 3.81667 15.6667 3.81667H50.3333C52.4558 3.81667 54.1833 5.54418 54.1833 7.66667V10.3333Z" fill="#FAFAFA" stroke="#FAFAFA" stroke-width="0.3"/>
<path d="M29.1466 64.5565L29.1466 64.5567C29.4376 64.9456 29.8858 65.1501 30.3334 65.1501C30.6421 65.1501 30.9566 65.0523 31.2208 64.8534C31.2209 64.8534 31.2209 64.8534 31.221 64.8533L36.5538 60.8537C36.5538 60.8537 36.5538 60.8537 36.5539 60.8536C36.9281 60.5744 37.1474 60.1323 37.1474 59.6668C37.1474 59.2013 36.9281 58.7592 36.5539 58.48C36.5538 58.48 36.5538 58.4799 36.5538 58.4799L31.2208 54.4801L31.2204 54.4799C30.5683 53.9938 29.6398 54.1179 29.1442 54.7766L29.1442 54.7766L29.1439 54.7771C28.6543 55.4328 28.788 56.3612 29.4433 56.8534L29.4435 56.8535L33.198 59.6669L29.4461 62.4801L29.446 62.4802C28.7907 62.9724 28.657 63.9009 29.1466 64.5565Z" fill="#FAFAFA" stroke="#FAFAFA" stroke-width="0.3"/>
<path d="M35.0113 61.1232C35.8277 61.0905 36.4652 60.3992 36.4325 59.5806L36.4325 59.5801C36.397 58.7643 35.7433 58.124 34.8874 58.1594C34.2882 58.1833 33.6859 58.1833 33.056 58.1833V58.1832L33.0509 58.1834C30.3294 58.2764 27.6386 58.0878 24.9201 57.8957C17.6821 57.3736 12.3853 56.2694 8.90237 55.0553C7.16015 54.448 5.87787 53.8153 5.03435 53.2185C4.61253 52.92 4.30522 52.6338 4.10463 52.3686C3.90361 52.1027 3.81667 51.8673 3.81667 51.6666C3.81667 51.5563 3.85865 51.4047 3.9555 51.211L3.95561 51.2108C4.32043 50.4782 4.02386 49.5885 3.29418 49.2207C2.56425 48.8527 1.66841 49.1464 1.3005 49.8822C1.00362 50.476 0.85 51.0775 0.85 51.6666C0.85 53.081 1.65364 54.3085 3.00149 55.36C4.34886 56.4111 6.2573 57.301 8.51308 58.0438C13.0263 59.5299 18.97 60.4398 24.7092 60.8536L24.7094 60.8536C27.4728 61.0485 30.263 61.15 33 61.15H33.0016C33.6858 61.15 34.347 61.15 35.0113 61.1232ZM35.0113 61.1232L35.0053 60.9733M35.0113 61.1232C35.0113 61.1232 35.0114 61.1232 35.0114 61.1232L35.0053 60.9733M35.0053 60.9733C35.7387 60.944 36.312 60.3226 36.2827 59.5866L24.72 60.704C27.48 60.8986 30.2667 61 33 61C33.6853 61 34.344 61 35.0053 60.9733Z" fill="#FAFAFA" stroke="#FAFAFA" stroke-width="0.3"/>
<path d="M40.8292 59.3879L40.8292 59.3879C40.8915 60.1626 41.5413 60.7499 42.304 60.7499H42.3068C42.3423 60.7499 42.3871 60.7499 42.4275 60.7468L42.4283 60.7467C45.08 60.5292 50.7371 59.9377 55.7344 58.5766C58.232 57.8964 60.5758 57.0211 62.2984 55.8974C64.0188 54.775 65.15 53.3834 65.15 51.6666C65.15 51.0774 64.9964 50.4759 64.6995 49.8822L64.6993 49.8817C64.3291 49.1473 63.4338 48.8494 62.7054 49.2208C61.9761 49.5888 61.6797 50.4783 62.0444 51.2108L62.0445 51.211C62.1414 51.4047 62.1834 51.5562 62.1834 51.6666C62.1834 51.8563 62.1016 52.0805 61.9114 52.3354C61.7217 52.5896 61.4309 52.8648 61.0314 53.153C60.2324 53.7292 59.0176 54.3437 57.3666 54.9381C54.0659 56.1263 49.0458 57.2258 42.1851 57.7864L42.1849 57.7864C41.3686 57.8547 40.764 58.5727 40.8292 59.3879Z" fill="#FAFAFA" stroke="#FAFAFA" stroke-width="0.3"/>
</svg>
