<svg width="30" height="30" viewBox="0 0 30 30" fill="none" xmlns="http://www.w3.org/2000/svg">
<path d="M24.9086 10.0457C25.2077 10.0457 25.479 10.1762 25.6934 10.3967C25.8933 10.6322 25.994 10.9247 25.9648 11.2337C25.9648 11.3357 25.1653 21.4456 24.7087 25.701C24.4228 28.3125 22.7393 29.898 20.2141 29.9415C18.2724 29.985 16.3744 30 14.5057 30C12.5217 30 10.5814 29.985 8.69809 29.9415C6.25747 29.883 4.57253 28.269 4.30118 25.701C3.83144 21.4306 3.04659 11.3357 3.032 11.2337C3.01741 10.9247 3.11661 10.6322 3.31793 10.3967C3.51633 10.1762 3.80226 10.0457 4.10278 10.0457H24.9086ZM17.5971 0C18.9232 0 20.1077 0.925491 20.4506 2.24548L20.6956 3.34047C20.894 4.23296 21.6672 4.86445 22.5571 4.86445H26.9307C27.5142 4.86445 28 5.34895 28 5.96544V6.53543C28 7.13693 27.5142 7.63642 26.9307 7.63642H2.07078C1.48579 7.63642 1 7.13693 1 6.53543V5.96544C1 5.34895 1.48579 4.86445 2.07078 4.86445H6.44435C7.33277 4.86445 8.10595 4.23296 8.30581 3.34197L8.53485 2.31898C8.8908 0.925491 10.0622 0 11.4029 0H17.5971Z" fill="#685AD1"/>
</svg>
