<svg width="33" height="24" viewBox="0 0 33 24" fill="none" xmlns="http://www.w3.org/2000/svg">
<path d="M30.8082 2.77561C29.9478 1.16362 29.0141 0.867114 27.113 0.754358C25.2138 0.618634 20.4382 0.562256 16.3008 0.562256C12.1556 0.562256 7.37796 0.618634 5.48078 0.75227C3.5836 0.867114 2.6479 1.16153 1.7796 2.77561C0.893457 4.38551 0.4375 7.15846 0.4375 12.0404C0.4375 12.0445 0.4375 12.0466 0.4375 12.0466C0.4375 12.0508 0.4375 12.0529 0.4375 12.0529V12.0571C0.4375 16.9181 0.893457 19.7119 1.7796 21.3051C2.6479 22.9171 3.58162 23.2094 5.4788 23.3452C7.37796 23.4621 12.1556 23.531 16.3008 23.531C20.4382 23.531 25.2138 23.4621 27.115 23.3473C29.0161 23.2115 29.9498 22.9192 30.8102 21.3072C31.7043 19.714 32.1562 16.9202 32.1562 12.0592C32.1562 12.0592 32.1562 12.0529 32.1562 12.0487C32.1562 12.0487 32.1562 12.0445 32.1562 12.0425C32.1562 7.15846 31.7043 4.38551 30.8082 2.77561ZM12.332 18.3108V5.78243L22.2441 12.0466L12.332 18.3108Z" fill="white"/>
</svg>
